<svg version="1.1" id="Layer_1" xmlns="http://www.w3.org/2000/svg" xmlns:xlink="http://www.w3.org/1999/xlink" x="0px" y="0px"
	 width="100%" viewBox="0 0 196 81" enable-background="new 0 0 196 81" xml:space="preserve">
<path fill="#FEFEFE" opacity="1.000000" stroke="none" 
	d="
M125.000000,82.000000 
	C83.333344,82.000000 42.166687,82.000000 1.000022,82.000000 
	C1.000015,55.000015 1.000015,28.000032 1.000007,1.000036 
	C66.333305,1.000024 131.666611,1.000024 196.999939,1.000012 
	C196.999954,27.999962 196.999954,54.999924 196.999969,81.999939 
	C173.166672,82.000000 149.333328,82.000000 125.000000,82.000000 
M150.846161,44.215511 
	C153.161087,44.407356 154.764008,43.377556 153.545807,41.142159 
	C152.212509,38.695583 150.440491,35.974998 148.128220,34.688656 
	C144.103607,32.449715 138.670639,34.753311 136.696884,38.694382 
	C134.876862,42.328499 135.884872,47.123859 138.957230,49.447357 
	C142.863785,52.401733 148.438858,51.678143 152.324585,47.573429 
	C151.554047,46.959648 150.797623,46.357094 150.072586,45.285748 
	C150.094543,44.972328 150.088745,44.659424 150.846161,44.215511 
M19.015808,48.538620 
	C19.230007,40.186756 23.060932,33.535782 30.117981,29.631933 
	C41.738964,23.203392 52.308865,26.084278 61.845001,36.376522 
	C58.741222,24.387440 47.064888,17.455999 34.180927,18.893848 
	C21.348602,20.325933 11.318110,31.359316 10.993217,44.193802 
	C10.712940,55.265778 19.358574,67.747307 28.720560,68.704041 
	C19.833296,57.960533 19.512415,57.322330 19.015808,48.538620 
M52.625530,66.312767 
	C53.862972,65.207481 55.136311,64.139572 56.332207,62.991032 
	C66.392120,53.329483 63.288609,36.271580 50.412968,30.667753 
	C49.243538,30.158785 47.843525,30.179607 45.673977,29.801712 
	C54.643398,38.057602 56.683781,46.897781 51.147953,54.122643 
	C48.970772,56.964104 45.441380,59.510651 42.033344,60.516800 
	C34.443317,62.757610 27.959400,59.677876 22.762268,53.538887 
	C26.401577,67.275337 39.289238,72.763107 52.625530,66.312767 
M111.026772,42.775280 
	C110.344910,34.500206 107.358521,32.486145 99.691956,35.084175 
	C99.013794,35.313992 98.230789,35.414192 97.520706,35.340672 
	C93.142738,34.887360 88.771721,34.366894 84.288803,33.856270 
	C84.288803,40.074932 84.288803,45.477863 84.288803,50.750107 
	C87.658043,51.642475 88.914497,50.547459 88.660965,47.336338 
	C88.492195,45.198742 88.442566,42.921406 89.024399,40.904133 
	C89.369202,39.708679 91.045334,38.897217 92.122841,37.913101 
	C93.071198,38.996655 94.688873,39.996101 94.837654,41.180130 
	C95.225006,44.262737 94.967918,47.426331 94.967918,50.725739 
	C96.741226,50.725739 98.114456,50.725739 99.956459,50.725739 
	C99.956459,47.309238 99.680237,44.140171 100.098045,41.065414 
	C100.256020,39.902908 102.016724,38.958191 103.046852,37.914192 
	C104.059433,38.950752 105.583878,39.830986 105.959824,41.061974 
	C106.472366,42.740250 106.080391,44.686752 106.130806,46.516747 
	C106.170372,47.953217 106.292702,49.387413 106.376472,50.792603 
	C108.088264,50.792603 109.357094,50.792603 111.027740,50.792603 
	C111.027740,48.276310 111.027740,45.978729 111.026772,42.775280 
M157.371719,44.511063 
	C157.371719,48.273151 157.371719,52.035244 157.371719,56.012062 
	C159.191528,56.012062 160.446182,56.012062 161.873581,56.012062 
	C161.976868,54.036060 162.070648,52.241646 162.159241,50.546822 
	C164.311905,50.752033 166.414062,51.246281 168.465622,51.087318 
	C172.844849,50.748001 175.682693,47.147068 175.618057,42.460938 
	C175.554001,37.818436 172.554504,34.174984 168.219360,34.032375 
	C164.759583,33.918564 161.281876,34.350563 157.372025,34.564350 
	C157.372025,37.622597 157.372025,40.584652 157.371719,44.511063 
M121.974342,51.081276 
	C125.651085,51.368004 129.242523,51.442066 131.351318,47.449787 
	C130.145416,46.573662 129.088150,45.805531 127.674576,44.778534 
	C129.821594,44.274727 131.332169,43.920261 132.784821,43.579391 
	C132.349823,37.587990 129.736572,34.470642 125.027802,33.989517 
	C120.583290,33.535400 116.364555,36.101704 115.211777,39.960716 
	C113.804977,44.670036 115.772697,48.303852 121.974342,51.081276 
M179.462875,49.900894 
	C180.811737,50.338707 182.160614,50.776520 183.845566,51.323421 
	C183.845566,43.148022 183.845566,35.774441 183.845566,28.007750 
	C182.286423,28.116304 180.955902,28.208941 179.369247,28.319412 
	C179.369247,35.493031 179.369247,42.247524 179.462875,49.900894 
M11.603688,23.699141 
	C15.279904,25.011984 18.485910,24.398869 19.138941,20.219574 
	C19.407959,18.497898 17.894703,15.503606 16.380709,14.775620 
	C14.850980,14.040070 11.723976,14.737354 10.352848,15.976031 
	C7.914915,18.178457 8.640123,21.018291 11.603688,23.699141 
M45.397141,47.859646 
	C43.943619,49.109409 42.003948,50.132824 41.266762,51.716118 
	C40.955326,52.385002 43.009510,55.053032 44.291992,55.312614 
	C45.561928,55.569664 48.453453,53.924503 48.444977,53.137257 
	C48.426395,51.411644 47.023308,49.700935 45.397141,47.859646 
z"/>
<path fill="#6F3475" opacity="1.000000" stroke="none" 
	d="
M19.016212,48.971184 
	C19.512415,57.322330 19.833296,57.960533 28.720560,68.704041 
	C19.358574,67.747307 10.712940,55.265778 10.993217,44.193802 
	C11.318110,31.359316 21.348602,20.325933 34.180927,18.893848 
	C47.064888,17.455999 58.741222,24.387440 61.845001,36.376522 
	C52.308865,26.084278 41.738964,23.203392 30.117981,29.631933 
	C23.060932,33.535782 19.230007,40.186756 19.016212,48.971184 
z"/>
<path fill="#6F3375" opacity="1.000000" stroke="none" 
	d="
M52.327248,66.541656 
	C39.289238,72.763107 26.401577,67.275337 22.762268,53.538887 
	C27.959400,59.677876 34.443317,62.757610 42.033344,60.516800 
	C45.441380,59.510651 48.970772,56.964104 51.147953,54.122643 
	C56.683781,46.897781 54.643398,38.057602 45.673977,29.801712 
	C47.843525,30.179607 49.243538,30.158785 50.412968,30.667753 
	C63.288609,36.271580 66.392120,53.329483 56.332207,62.991032 
	C55.136311,64.139572 53.862972,65.207481 52.327248,66.541656 
z"/>
<path fill="#733979" opacity="1.000000" stroke="none" 
	d="
M111.027252,43.228218 
	C111.027740,45.978729 111.027740,48.276310 111.027740,50.792603 
	C109.357094,50.792603 108.088264,50.792603 106.376472,50.792603 
	C106.292702,49.387413 106.170372,47.953217 106.130806,46.516747 
	C106.080391,44.686752 106.472366,42.740250 105.959824,41.061974 
	C105.583878,39.830986 104.059433,38.950752 103.046860,37.914192 
	C102.016724,38.958191 100.256020,39.902908 100.098045,41.065414 
	C99.680237,44.140171 99.956459,47.309238 99.956459,50.725739 
	C98.114456,50.725739 96.741226,50.725739 94.967918,50.725739 
	C94.967918,47.426331 95.225006,44.262737 94.837654,41.180130 
	C94.688873,39.996101 93.071198,38.996655 92.122841,37.913101 
	C91.045334,38.897217 89.369202,39.708679 89.024399,40.904133 
	C88.442566,42.921406 88.492195,45.198742 88.660965,47.336338 
	C88.914497,50.547459 87.658043,51.642475 84.288803,50.750107 
	C84.288803,45.477863 84.288803,40.074932 84.288803,33.856270 
	C88.771721,34.366894 93.142738,34.887360 97.520706,35.340672 
	C98.230789,35.414192 99.013794,35.313992 99.691956,35.084175 
	C107.358521,32.486145 110.344910,34.500206 111.027252,43.228218 
z"/>
<path fill="#763C7B" opacity="1.000000" stroke="none" 
	d="
M157.371872,44.028885 
	C157.372025,40.584652 157.372025,37.622597 157.372025,34.564350 
	C161.281876,34.350563 164.759583,33.918564 168.219360,34.032375 
	C172.554504,34.174984 175.554001,37.818436 175.618057,42.460938 
	C175.682693,47.147068 172.844849,50.748001 168.465622,51.087318 
	C166.414062,51.246281 164.311905,50.752033 162.159241,50.546822 
	C162.070648,52.241646 161.976868,54.036060 161.873581,56.012062 
	C160.446182,56.012062 159.191528,56.012062 157.371719,56.012062 
	C157.371719,52.035244 157.371719,48.273151 157.371872,44.028885 
M170.942078,41.760525 
	C170.135391,38.568516 167.765915,37.176479 165.021835,38.355709 
	C163.578323,38.976048 162.223312,41.593204 162.257431,43.279793 
	C162.283493,44.569092 164.369690,46.553097 165.863251,46.923843 
	C169.022736,47.708126 170.758209,45.778820 170.942078,41.760525 
z"/>
<path fill="#723777" opacity="1.000000" stroke="none" 
	d="
M121.566483,51.012074 
	C115.772697,48.303852 113.804977,44.670036 115.211777,39.960716 
	C116.364555,36.101704 120.583290,33.535400 125.027802,33.989517 
	C129.736572,34.470642 132.349823,37.587990 132.784821,43.579391 
	C131.332169,43.920261 129.821594,44.274727 127.674576,44.778534 
	C129.088150,45.805531 130.145416,46.573662 131.351318,47.449787 
	C129.242523,51.442066 125.651085,51.368004 121.566483,51.012074 
z"/>
<path fill="#713576" opacity="1.000000" stroke="none" 
	d="
M150.041183,45.754539 
	C150.797623,46.357094 151.554047,46.959648 152.324585,47.573429 
	C148.438858,51.678143 142.863785,52.401733 138.957230,49.447357 
	C135.884872,47.123859 134.876862,42.328499 136.696884,38.694382 
	C138.670639,34.753311 144.103607,32.449715 148.128220,34.688656 
	C150.440491,35.974998 152.212509,38.695583 153.545807,41.142159 
	C154.764008,43.377556 153.161087,44.407356 150.006546,44.182381 
	C146.489029,44.149254 143.811111,44.149254 140.289780,44.149254 
	C143.647766,49.150375 146.933670,46.680176 150.041183,45.754539 
z"/>
<path fill="#79417E" opacity="1.000000" stroke="none" 
	d="
M179.416061,49.451454 
	C179.369247,42.247524 179.369247,35.493031 179.369247,28.319412 
	C180.955902,28.208941 182.286423,28.116304 183.845566,28.007750 
	C183.845566,35.774441 183.845566,43.148022 183.845566,51.323421 
	C182.160614,50.776520 180.811737,50.338707 179.416061,49.451454 
z"/>
<path fill="#713677" opacity="1.000000" stroke="none" 
	d="
M11.298847,23.492586 
	C8.640123,21.018291 7.914915,18.178457 10.352848,15.976031 
	C11.723976,14.737354 14.850980,14.040070 16.380709,14.775620 
	C17.894703,15.503606 19.407959,18.497898 19.138941,20.219574 
	C18.485910,24.398869 15.279904,25.011984 11.298847,23.492586 
z"/>
<path fill="#743B7A" opacity="1.000000" stroke="none" 
	d="
M45.791363,47.921894 
	C47.023308,49.700935 48.426395,51.411644 48.444977,53.137257 
	C48.453453,53.924503 45.561928,55.569664 44.291992,55.312614 
	C43.009510,55.053032 40.955326,52.385002 41.266762,51.716118 
	C42.003948,50.132824 43.943619,49.109409 45.791363,47.921894 
z"/>
<path fill="#EBE3EC" opacity="1.000000" stroke="none" 
	d="
M150.056885,45.520142 
	C146.933670,46.680176 143.647766,49.150375 140.289780,44.149254 
	C143.811111,44.149254 146.489029,44.149254 149.611053,44.248146 
	C150.088745,44.659424 150.094543,44.972328 150.056885,45.520142 
z"/>
<path fill="#FCFAFC" opacity="1.000000" stroke="none" 
	d="
M170.953308,42.159676 
	C170.758209,45.778820 169.022736,47.708126 165.863251,46.923843 
	C164.369690,46.553097 162.283493,44.569092 162.257431,43.279793 
	C162.223312,41.593204 163.578323,38.976048 165.021835,38.355709 
	C167.765915,37.176479 170.135391,38.568516 170.953308,42.159676 
z"/>
</svg>